<?xml version="1.0" encoding="utf-8"?>
<!-- Generator: Adobe Illustrator 24.0.2, SVG Export Plug-In . SVG Version: 6.00 Build 0)  -->
<svg version="1.1" id="Layer_1" xmlns="http://www.w3.org/2000/svg" xmlns:xlink="http://www.w3.org/1999/xlink" x="0px" y="0px"
	 viewBox="0 0 200 200" style="enable-background:new 0 0 200 200;" xml:space="preserve">
<style type="text/css">
	.st0{display:none;}
	.st1{display:inline;fill:#7DAA00;}
	.st2{display:none;fill:#7DAA00;}
	.st3{fill:#7DAA00;}
	.st4{display:inline;}
	.st5{fill:#3D3C3C;}
	.st6{display:none;fill-rule:evenodd;clip-rule:evenodd;fill:#7DAA00;}
</style>
<g id="budding-leaves" transform="translate(-3.445)" class="st0">
	<path id="Path_31" class="st1" d="M32.4,118.4c28.6,32.3,58.4,14,68.1,6.4c-7.3-8-15.3-15.4-23.9-21.9c-13.4,5.2-37.4-4.6-37.4-4.6
		c10.8,2.8,22,3,32.9,0.6c-0.9-0.7-16.9-11.5-21.7-17.8C37,81.6,26,70.8,26,70.8c6.2,3.1,13,4.8,19.9,5.2C32.7,57.7,33.3,41,33.3,41
		c4.1,11.5,10,22.3,17.3,32.1c1.3-6.7,1.2-13.6-0.3-20.3c0,0,8.6,13.4,4.7,25.7c6.8,7.3,17.5,13.6,21.4,16.4
		c0.3-0.8,4.4-13.5,0.4-32.3c0,0,10.9,23.6,4.1,35.9c8.3,6,10.6,7.5,24.5,22.1c31.5-22.2,4.4-61.8-19.2-71.1
		C61.8,40,51.7,41.9,29.5,7.7C5.1,41.6,9.1,92.1,32.4,118.4z M167,115c-12,5-22.6,12.7-31.1,22.5c-0.1-0.2-0.2-0.4-0.3-0.7
		C122.6,92.9,194,99,194,99c-6.2,9.3-11.4,19.3-15.4,29.8c-6.4,18-32.3,33-41.7,11.6C145.2,130,155.4,121.4,167,115L167,115z
		 M100.5,124.9c0.1-0.1,4.9-4.2,4.9-4.2c12.2,12.7,17,23.5,18.2,37.2c3-7.4,7.2-14.3,12.4-20.3c0.3,1,0.7,2,1.1,2.9
		c-7.3,9.2-10.1,21.7-11.7,25.8c0,11.4-1.3,17.2-2.4,26.7c0,0-6.6,3.6-8.4-3.2C118.2,184,121.8,144.5,100.5,124.9z"/>
</g>
<path id="audit" class="st2" d="M148.9,19.9H121C116.9,8.4,104.3,2.3,92.7,6.4c-6.3,2.2-11.3,7.2-13.5,13.5H51
	c-12.2,0-22.1,9.9-22.2,22.2V172c0,12.2,9.9,22.1,22.2,22.2h97.9c12.2,0,22.1-9.9,22.1-22.2V42.1C171,29.8,161.1,19.9,148.9,19.9
	L148.9,19.9z M92.7,34.7v-7.4c-0.1-4.1,3.2-7.4,7.2-7.5c4.1-0.1,7.4,3.2,7.5,7.2c0,0.1,0,0.2,0,0.3v7.4h14.8v14.4H78V34.7H92.7z
	 M156.2,172c0,4.1-3.3,7.4-7.4,7.4H51c-4.1,0-7.4-3.3-7.4-7.4V42.1c0-4.1,3.3-7.4,7.4-7.4h12.2v29.2H137V34.7h11.8
	c4.1,0,7.4,3.3,7.4,7.4V172z M128.3,90.1l10.9,9.9l-47.3,52l-31.2-30.2L71,111.2l20.3,19.6L128.3,90.1z"/>
<g id="budding-leaves_1_" transform="translate(9.556 11.149)">
	<path id="Path_31_1_" class="st3" d="M78.1,45.3c5.3,5.9,10.8,2.6,12.5,1.2c-1.3-1.5-2.8-2.8-4.4-4c-2.5,0.9-6.9-0.9-6.9-0.9
		c2,0.5,4.1,0.6,6.1,0.1c-1.5-0.9-2.8-2.1-4-3.3c-1.7-0.1-3.2-0.8-4.5-1.9c1.2,0.6,2.4,0.9,3.7,0.9c-1.4-1.8-2.2-4.1-2.3-6.5
		c0.8,2.1,1.8,4.1,3.2,5.9c0.3-1.2,0.2-2.5,0-3.7c0.9,1.4,1.2,3.1,0.9,4.7c1.2,1.2,2.5,2.1,3.9,3c0.5-1.9,0.6-4,0.1-5.9
		c0,0,2,4.4,0.8,6.6c1.7,1.2,3.2,2.5,4.5,4.1c5.8-4.1,0.8-11.4-3.5-13.1c-4.5-1.8-6.3-1.4-10.4-7.7C73.1,31.1,73.8,40.4,78.1,45.3z
		 M102.9,44.7c-2.2,0.9-4.2,2.3-5.7,4.1c0,0,0-0.1,0-0.1c-2.4-8.1,10.7-7,10.7-7c-1.2,1.7-2.1,3.5-2.8,5.5c-1.2,3.3-5.9,6.1-7.7,2.1
		C98.9,47.4,100.8,45.8,102.9,44.7z M90.7,46.5l0.9-0.8c1.9,1.8,3.1,4.2,3.3,6.8c0.6-1.4,1.3-2.6,2.3-3.8c0,0.2,0.1,0.3,0.2,0.6
		c-1,1.5-1.7,3.1-2.1,4.7c0,1.7-0.2,3.3-0.4,4.9c0,0-1.2,0.7-1.5-0.6C93.9,57.4,94.6,50.1,90.7,46.5z"/>
</g>
<path id="Path_32" class="st2" d="M189.3,171.7l-47.2-47.2c22.7-32.3,14.9-76.8-17.4-99.4S47.9,10.2,25.3,42.4s-14.9,76.8,17.4,99.4
	c12.1,8.5,26.5,13,41.3,13c14.8-0.1,29.3-4.8,41.3-13.5l47.2,47.2c4.8,4.2,12,4.2,16.9,0l0,0C193.3,184.2,192.5,176.8,189.3,171.7z
	 M83.9,138c-30.3,0-54.8-24.5-54.8-54.8s24.5-54.8,54.8-54.8s54.8,24.5,54.8,54.8c0.1,30.2-24.4,54.7-54.6,54.8
	C84.1,138,84,138,83.9,138z"/>
<g id="list-with-dots_1_" transform="translate(0 -54.817)" class="st0">
	<g id="Group_167" transform="translate(0 54.817)" class="st4">
		<path id="Path_33" class="st3" d="M31.4,81.1c-5-0.1-9.8,1.9-13.3,5.5c-7.3,7.4-7.3,19.2,0,26.6c3.5,3.6,8.3,5.6,13.3,5.5
			c5,0.1,9.8-1.9,13.3-5.5c7.3-7.4,7.3-19.2,0-26.6C41.2,83,36.4,81,31.4,81.1z"/>
		<path id="Path_34" class="st3" d="M31.4,31c-5-0.1-9.8,1.9-13.3,5.5c-7.3,7.4-7.3,19.2,0,26.6c3.5,3.6,8.3,5.6,13.3,5.5
			c5,0.1,9.8-1.9,13.3-5.5c7.3-7.4,7.3-19.2,0-26.6C41.2,32.9,36.4,30.9,31.4,31z"/>
		<path id="Path_35" class="st3" d="M31.4,131.1c-5-0.1-9.8,1.9-13.3,5.5c-7.3,7.4-7.3,19.2,0,26.6c3.5,3.6,8.3,5.6,13.3,5.5
			c5,0.1,9.8-1.9,13.3-5.5c7.3-7.4,7.3-19.2,0-26.6C41.2,133,36.4,131,31.4,131.1z"/>
		<path id="Path_36" class="st3" d="M186.9,38.2c-0.6-0.6-1.4-0.9-2.2-0.9H65.8c-1.7,0-3.1,1.4-3.1,3.1v18.8c0,1.7,1.4,3.1,3.1,3.1
			h118.9c1.7,0,3.1-1.4,3.1-3.1V40.4C187.8,39.6,187.5,38.8,186.9,38.2z"/>
		<path id="Path_37" class="st3" d="M184.7,87.3H65.8c-1.7,0-3.1,1.4-3.1,3.1v18.8c0,1.7,1.4,3.1,3.1,3.1h118.9
			c1.7,0,3.1-1.4,3.1-3.1V90.5C187.8,88.7,186.4,87.4,184.7,87.3L184.7,87.3z"/>
		<path id="Path_38" class="st3" d="M184.7,137.4H65.8c-1.7,0-3.1,1.4-3.1,3.1v18.8c0,1.7,1.4,3.1,3.1,3.1h118.9
			c1.7,0,3.1-1.4,3.1-3.1v-18.8C187.8,138.8,186.4,137.4,184.7,137.4L184.7,137.4z"/>
	</g>
</g>
<g id="plant" transform="translate(0 -0.208)" class="st0">
	<g id="Group_169" transform="translate(11.251 0.208)" class="st4">
		<g id="Group_168">
			<path id="Path_39" class="st3" d="M176.5,21.3c-0.6-1.3-1.9-2.2-3.3-2.2c-26.9,0-51.5,8.5-65.7,22.7C99.2,50,96,62.1,99,73.4
				c0.5,1.9,2.5,3.1,4.4,2.5c0.9-0.2,1.7-0.8,2.2-1.6c6.8-11.2,14.9-21.4,24.1-30.6c1.4-1.4,3.7-1.4,5.1,0c1.4,1.4,1.4,3.7,0,5.1
				c-2.8,2.8-5.3,5.5-7.6,8.2c-0.2,0.3-0.4,0.5-0.7,0.8c-10.3,11.7-18.7,25-24.8,39.4C96.9,82.6,88.2,57.6,80.2,47
				c5-7.2,4.1-17-2.1-23.3c-7.5-7.5-20-11.9-34.1-11.9c-2,0-3.6,1.6-3.6,3.6c0,1,0.4,1.9,1.1,2.6c3.3,3.3,4.3,9.7,5.3,15.9
				c1,6.3,2,12.2,5.5,15.7c6.1,6.1,15.5,7.1,22.8,2.5C83.4,63.8,94.3,97,98,109.8c0.4,1.5,1.9,2.6,3.4,2.6h0.1c1.6,0,3-1.2,3.4-2.7
				c1.8-6.1,4.2-12.1,7.1-17.7c13,9.3,30.8,7.8,42-3.5c6.1-6.1,8-17.5,10-29.5c2.1-12.9,4.3-26.3,11.7-33.7
				C176.7,24.2,177,22.6,176.5,21.3z"/>
		</g>
	</g>
	<g id="Group_171" transform="translate(0 25.005)" class="st4">
		<g id="Group_170">
			<path id="Path_40" class="st3" d="M57.7,74.3c-6.2-5.8-30.7-7.7-38.1-8.2c-1,0-1.9,0.3-2.7,1c-0.7,0.7-1.1,1.6-1.1,2.6v71.8
				c0,2,1.6,3.6,3.6,3.6h21.5c1.6,0,2.9-1,3.4-2.5c0.5-1.6,12.9-46.7,14.5-65.4C58.9,76.1,58.5,75,57.7,74.3z"/>
		</g>
	</g>
	<g id="Group_173" transform="translate(11.697 31.349)" class="st4">
		<g id="Group_172">
			<path id="Path_41" class="st3" d="M154.8,106.5l-25.1,10.7c-7,0.3-21.4-0.1-25.1-0.1c-3.6,0.1-22.3-5.9-19.4-7.1
				c1.7-0.3,3.3-0.3,5-0.1c16.4,1.4,43.1,4.7,43.1-7.2s-28.9-14.4-35.9-14.4S78.7,82,68.7,81.1c-4-0.4-9.5-0.9-15-1.3
				c-3,16.5-7.1,32.8-12.3,48.7l38,17.2c14.2,5.4,23.9,12.3,53.8,0c0,0,43.1-18.3,43.1-28.7C176.3,108.6,166.4,102.5,154.8,106.5z"
				/>
		</g>
	</g>
</g>
<path id="Path_42" class="st2" d="M165,73.9v91.6c0,11.9-9.7,21.6-21.6,21.6H35.2c-11.9,0-21.6-9.7-21.6-21.6V57.3
	c0-11.9,9.7-21.6,21.6-21.6h91.6l-21.6,21.6h-70v108.2h108.2v-70L165,73.9z M148.4,29.3l-7.6,7.6l22.9,22.9l7.6-7.6L148.4,29.3z
	 M163.7,14l-7.6,7.6l22.9,23l7.6-7.7L163.7,14z M64.3,113.4l22.9,22.9L156,67.5l-22.9-22.9L64.3,113.4z M56.9,143.8h21.6l-21.6-21.6
	V143.8z"/>
<g id="growth" transform="translate(0.002 -0.5)" class="st0">
	<path id="Path_43" class="st1" d="M176.5,168.1v-96h-41.6v96h-15V92.9H78.4v75.2h-15v-54.5H21.8v54.5H10.6v10.4h177.2v-10.4H176.5z
		"/>
	<path id="Path_44" class="st1" d="M35.9,94.1l117.4-51.8l-4.7,12.8l9.8,3.6l10.8-29.5l-29.3-10.7l-3.5,9.8l12.7,4.6L31.7,84.6
		L35.9,94.1z"/>
</g>
<g id="printer" transform="translate(0 -6.5)" class="st0">
	<g id="Group_174" transform="translate(0 6.5)" class="st4">
		<path id="Path_45" class="st3" d="M23.6,77.9h151.8c1.8,0.3,3.5-1,3.7-2.8c0.2-1.5-0.6-2.9-2-3.5c-2.5-0.9-30.7-11.5-35.6-11.5h-8
			V33.2H65.6V60h-8.1c-4.9,0-33.1,10.7-35.6,11.5c-1.7,0.7-2.5,2.6-1.8,4.3C20.7,77.3,22.1,78.1,23.6,77.9z M177.2,87.7H21.8
			c-4.9,0-9.8,5.8-9.8,10.7v31.3c0,4.9,4.9,10.7,9.8,10.7h17.7L31.6,185h135.7l-7.9-44.6h17.7c4.9,0,9.8-5.8,9.8-10.7V98.4
			C187,93.5,182.1,87.7,177.2,87.7z M49.5,167.2l12.5-58h75l12.5,58H49.5z"/>
	</g>
</g>
<path class="st2" d="M58.2,109.8c7.2,2.9,12,7.4,14.6,14.2c3.7,9.4,1.4,21.9-5.3,28.5c-4.9,4.8-11.1,6.7-17.7,6.9
	c-10.3,0.3-20.7,0.1-31,0.2c-1.1,0-1.5-0.3-1.4-1.4c0.1-0.5,0-1,0-1.5c0-30,0-59.9-0.1-89.9c0-2.2,0.6-2.7,2.7-2.6
	c7.8,0.1,15.6,0,23.4,0.1c6.3,0,12.4,0.9,18,4.2c3.3,2,5.9,4.7,7.6,8.2c4.5,9.1,2.5,22.4-4.2,28.9C63.1,107.3,61,108.5,58.2,109.8z
	 M24.4,133.2c0,6.2,0,12.5,0,18.7c0,1.1,0,1.9,1.5,1.8c8.2-0.2,16.4,0.4,24.6-0.3c5.7-0.5,10.8-2.6,13.9-7.8
	c4.4-7.4,4.6-15.2,0.7-22.8c-3.7-7.2-10.3-9.8-18-9.9c-6.9-0.1-13.8,0-20.7-0.1c-1.6,0-2.1,0.4-2,2C24.5,121,24.4,127.1,24.4,133.2z
	 M24.4,88.2c0,5.4,0,10.8,0,16.2c0,0.9-0.3,2,1.4,2c8-0.1,16.1,0.1,24.1-0.2c6.3-0.3,11.2-3.5,13.9-9.5C69.2,84.5,63,72.9,50,70.6
	c-1.4-0.2-2.8-0.4-4.2-0.4c-6.5-0.1-13,0-19.4-0.1c-1.5,0-2,0.3-1.9,1.9C24.5,77.4,24.4,82.8,24.4,88.2z"/>
<path class="st2" d="M117.6,149c-1.8,2-3.2,3.8-4.8,5.4c-5.8,5.6-14.8,7.1-22.2,3.8c-11-5-13.5-19.7-4.9-28.9
	c4.6-4.9,10.5-7.5,16.8-9.4c4.5-1.3,9-2.6,13.5-3.8c1.2-0.3,1.8-0.9,1.7-2.2c-0.1-1.6,0-3.1,0-4.7c0.1-5.5-2-9.9-7.1-12.2
	c-5.3-2.4-10.4-1.4-14.9,2.4c-1.9,1.6-3.4,3.6-4.5,5.8c-0.6,1.3-1.2,1.7-2.6,1c-5.1-2.5-5.5-0.8-1.8-6.2c4.6-6.7,11-10.4,19.4-10.1
	c10.6,0.4,18,7.9,18,18.5c0,12.3-0.1,24.6-0.2,36.9c0,4.1,0.4,8,1.6,11.9c0.6,2-0.1,2.3-1.8,2.3c-4.6,0.1-4.6,0.1-5.4-4.4
	C118.1,153.2,117.9,151.2,117.6,149z M117.5,131C117.5,131,117.6,131,117.5,131c0-2.7,0-5.4,0.1-8.1c0-1.2-0.2-1.6-1.5-1.2
	c-3,0.8-6.1,1.4-9,2.4c-5.4,1.7-10.8,3.5-15.1,7.4c-4.6,4-6.1,11.1-3.6,15.9c2.5,4.9,8.6,7.5,14.5,6.2c4.6-1,7.8-4,10.7-7.5
	c2.5-3.1,4.8-6.2,4-10.6C117.3,134,117.5,132.5,117.5,131z"/>
<path class="st2" d="M136,111.9c0-15.1,0-30.2,0-45.3c0-2,0.5-2.5,2.4-2.4c4.2,0.1,4.2,0,4.2,4.2c0,29.5,0,59.1,0.1,88.6
	c0,2.1-0.5,2.6-2.5,2.5c-4.1-0.2-4.1,0-4.1-4.1C136,140.9,136,126.4,136,111.9z"/>
<path class="st2" d="M172.3,112.1c0,15,0,30,0,45.1c0,1.9-0.5,2.5-2.4,2.4c-4.2-0.2-4.2,0-4.2-4.2c0-29.5,0-59.1,0-88.6
	c0-2.1,0.5-2.6,2.5-2.5c4.1,0.2,4.1,0,4.1,4.1C172.3,82.9,172.3,97.5,172.3,112.1z"/>
<path class="st2" d="M126.5,47.3c0-7.1,5.6-12.9,12.7-12.9c7.2,0,13,5.7,13,12.9c0,7.1-5.9,13-13.1,12.9
	C132.1,60.2,126.5,54.5,126.5,47.3z"/>
<path class="st2" d="M181.9,47.3c0,7.2-5.8,13-13,12.9c-7.1-0.1-12.7-5.8-12.7-12.9c-0.1-7.1,5.8-12.9,13-12.9
	C176.3,34.5,182,40.3,181.9,47.3z"/>
<path class="st2" d="M144.4,181.7l-25-27.3l10.6-10.6l14.5,14.5l32.7-32.7l10.6,12.8 M106.2,181.7h-71c-10,0-18.2-8.1-18.2-18.2
	V36.2C17,26.1,25.1,18,35.2,18h127.4c10,0,18.2,8.1,18.2,18.2v71c-8-4.6-17.4-7.3-27.3-7.3l-9.1,0.7v-9.8h-91V109h70
	c-15.3,10.1-24.5,27.2-24.5,45.5C98.9,164.4,101.6,173.7,106.2,181.7 M98.9,127.2H53.4v18.2h45.5 M144.4,54.4h-91v18.2h91"/>
<path class="st2" d="M118.7,9H31.1c-11.6,0-21,9.4-21,21v118.1c0,11.6,9.4,21,21,21h62c-6.7-9.1-10.6-20.3-10.6-32.4
	c0-30.5,24.8-55.2,55.2-55.2c0.6,0,1.3,0,1.9,0.1V30C139.7,18.4,130.3,9,118.7,9z M40.6,39.5h30.5c4.2,0,7.6,3.4,7.6,7.6
	s-3.4,7.6-7.6,7.6H40.6c-4.2,0-7.6-3.4-7.6-7.6S36.4,39.5,40.6,39.5z M78.7,115.7H40.6c-4.2,0-7.6-3.4-7.6-7.6s3.4-7.6,7.6-7.6h38.1
	c4.2,0,7.6,3.4,7.6,7.6S82.9,115.7,78.7,115.7z M109.2,85.2H40.6c-4.2,0-7.6-3.4-7.6-7.6s3.4-7.6,7.6-7.6h68.6
	c4.2,0,7.6,3.4,7.6,7.6S113.4,85.2,109.2,85.2z"/>
<path class="st2" d="M137.8,176.6c-22.1,0-40-17.9-40-40s17.9-40,40-40s40,17.9,40,40S159.8,176.6,137.8,176.6z M137.8,111.9
	c-13.7,0-24.8,11.1-24.8,24.8s11.1,24.8,24.8,24.8s24.8-11.1,24.8-24.8S151.4,111.9,137.8,111.9z"/>
<path class="st2" d="M185.4,191.9c-2,0-3.9-0.7-5.4-2.2l-24.8-24.8c-3-3-3-7.8,0-10.8s7.8-3,10.8,0l24.8,24.8c3,3,3,7.8,0,10.8
	C189.3,191.1,187.3,191.9,185.4,191.9L185.4,191.9z"/>
<g class="st0">
	<path class="st1" d="M143.3,108.5c-22.7,0-41.3,18.5-41.3,41.3s18.5,41.3,41.3,41.3s41.3-18.5,41.3-41.3S166.1,108.5,143.3,108.5z
		 M168.8,156h-19.3v19.3h-12.4V156h-19.3v-12.4h19.3v-19.3h12.4v19.3h19.3V156z"/>
	<polygon class="st1" points="108,14.7 108,43.7 137.1,43.7 	"/>
	<path class="st1" d="M39.6,152.6v-12.4h50.9c1.1-5.9,3.1-11.5,6-16.6H39.6v-12.4H106c9.7-9.3,22.8-15.1,37.3-15.1V56.2H95.6V8.5
		H18.8v172.2h80.6c-5.6-8-9.2-17.6-9.7-28L39.6,152.6L39.6,152.6z M39.6,82.1h83v12.4h-83V82.1z"/>
</g>
<g class="st0">
	<g class="st4">
		<g>
			<polygon class="st5" points="63.7,26.1 52.4,12.6 12,46.5 23.3,60 			"/>
			<polygon class="st5" points="188,46.6 147.6,12.6 136.3,26.1 176.7,60 			"/>
			<path class="st5" d="M100,31.4c-43.8,0-79.2,35.5-79.2,79.2s35.4,79.2,79.2,79.2s79.2-35.5,79.2-79.2S143.7,31.4,100,31.4z
				 M100,172.2c-34,0-61.6-27.6-61.6-61.6S66,49,100,49s61.6,27.6,61.6,61.6S134.1,172.2,100,172.2z"/>
			<polygon class="st5" points="104.4,66.6 91.2,66.6 91.2,119.4 133,144.5 139.6,133.7 104.4,112.8 			"/>
		</g>
	</g>
</g>
<g class="st0">
	<g id="surface1_1_" class="st4">
		<path class="st3" d="M17.6,176.2H57c1.1,0.5,12.9,10.3,30.9,10.3H116c22.5,0,44-10.7,57.6-28.7l12.3-16.5c3.4-4.5,2.6-10.9-2-14.4
			c-4.3-3.2-10.3-2.7-13.8,1.2l-22.6,24.3c-2,2.1-4.7,3.2-7.6,3.2h-45c-2.9,0-5.1-2.3-5.1-5c0-2.9,2.3-5.2,5.1-5.2h41.7
			c5.7,0,10.3-4.6,10.3-10.3c0-5.7-4.6-10.3-10.3-10.3h-22.1c-1.1-0.1-2.3-0.5-3.1-1.2C95.9,110,74,107.1,55.6,116.1l-18,8.7h-20
			c-2.9,0-5.1,2.4-5.1,5.2v41C12.4,174,14.7,176.2,17.6,176.2z"/>
		<path class="st3" d="M93.9,103c8.3,2.3,16.1,6,22.8,11.5l19.9,0c9,0,16.6,5.8,19.4,13.8l6.7-7.1c0.1-0.1,0.3-0.2,0.4-0.3
			c-6.7-14.4-20.4-24.7-36.8-26.5V83c14.2,0,25.7-11.5,25.7-25.7c0-2.8-2.3-5.1-5.1-5.1c-8.5,0-15.9,4.1-20.6,10.4V41.9
			c14.2,0,25.7-11.5,25.7-25.7c0-2.8-2.3-5.1-5.1-5.1c-8.5,0-15.9,4.1-20.6,10.4v-5.3c0-2.8-2.3-5.1-5.1-5.1c-2.8,0-5.1,2.3-5.1,5.1
			v5.3C111.3,15.1,103.9,11,95.4,11c-2.8,0-5.1,2.3-5.1,5.1c0,14.2,11.5,25.7,25.7,25.7v20.7c-4.7-6.3-12.1-10.4-20.6-10.4
			c-2.8,0-5.1,2.3-5.1,5.1C90.3,71.5,101.8,83,116,83v11.4C107.8,95.3,100.2,98.4,93.9,103z"/>
	</g>
</g>
<g id="_x30_14---Planting-Seeds" class="st0">
	<path id="Shape" class="st1" d="M187.4,152h-46.8c-5.3,0-10,3.5-11.5,8.7c-3.8,12.7-15.5,21.4-28.7,21.4s-24.9-8.7-28.7-21.4
		c-1.5-5.1-6.2-8.7-11.5-8.7H13.4c-1.7,0-3,1.3-3,3v30c0,1.7,1.3,3,3,3h174c1.7,0,3-1.3,3-3v-30C190.4,153.3,189.1,152,187.4,152z"
		/>
	<path class="st1" d="M10.4,56v54c0,1.7,1.3,3,3,3h18c1.7,0,3-1.3,3-3V56c0-1.7-1.3-3-3-3h-18C11.8,53,10.4,54.3,10.4,56z"/>
	<path class="st1" d="M80.9,125c-1.8,0-3.5,1.1-4.2,2.8s-0.3,3.6,1,4.9c1.3,1.3,3.2,1.7,4.9,1c1.7-0.7,2.8-2.3,2.8-4.2
		C85.4,127,83.4,125,80.9,125L80.9,125z"/>
	<path class="st1" d="M80.9,83c-1.8,0-3.5,1.1-4.2,2.8s-0.3,3.6,1,4.9c1.3,1.3,3.2,1.7,4.9,1c1.7-0.7,2.8-2.3,2.8-4.2
		C85.4,85,83.4,83,80.9,83L80.9,83z"/>
	<path class="st1" d="M80.9,83c-1.8,0-3.5,1.1-4.2,2.8s-0.3,3.6,1,4.9c1.3,1.3,3.2,1.7,4.9,1c1.7-0.7,2.8-2.3,2.8-4.2
		C85.4,85,83.4,83,80.9,83L80.9,83z"/>
	<path class="st1" d="M88.4,121.8H142c3.5,0.1,6.3-2.7,6.5-6.2c-0.1-1.5-0.7-2.9-1.8-3.9c-1.1-1.1-2.6-1.8-4.2-1.8h-12
		c-1.7,0-3-1.3-3-3s1.3-3,3-3H163c1.7,0,3.3-0.6,4.5-1.8s1.9-2.8,1.9-4.5c-0.1-1.5-0.7-2.9-1.8-3.9c-1.1-1.1-2.6-1.8-4.2-1.8h-33
		c-1.7,0-3-1.3-3-3s1.3-3,3-3H178c1.7,0,3.3-0.6,4.5-1.8s1.9-2.8,1.9-4.5c-0.1-1.5-0.7-2.9-1.8-3.9c-1.1-1.1-2.6-1.8-4.2-1.8h-48
		c-1.7,0-3-1.3-3-3s1.3-3,3-3H160c1.7,0,3.3-0.6,4.5-1.8s1.9-2.8,1.9-4.5c-0.1-1.5-0.7-2.9-1.8-3.9c-1.1-1.1-2.6-1.8-4.2-1.8h-58.7
		c-1.3,5.5-4.2,10.4-8.5,14.1c-0.5,0.5-1.2,0.8-1.9,0.9c-1.2,0-2.3-0.8-2.8-1.9s-0.1-2.5,0.8-3.3c3.8-3.3,6.3-8,7-13
		c0.2-1.3,0.2-2.6,0.2-3.9C96.4,41.6,100.5,35,107,32l14-6.5c1.5-0.7,2.6-1.9,3.2-3.4c0.6-1.5,0.5-3.2-0.2-4.6c-1.4-3-4.9-4.3-8-3
		L72.4,35c-5.8,2.9-10.9,7.2-14.7,12.4c-3.6,5.3-8.9,9.1-15,10.8c-1.3,0.4-2.2,1.6-2.1,3v45.1c0,1.1,0.6,2.2,1.6,2.7"/>
	<circle class="st1" cx="80.9" cy="87.5" r="10.5"/>
	<circle class="st1" cx="104.9" cy="105.5" r="10.5"/>
	<circle class="st1" cx="104.9" cy="105.5" r="4.5"/>
	<path class="st1" d="M80.9,83c-1.8,0-3.5,1.1-4.2,2.8s-0.3,3.6,1,4.9c1.3,1.3,3.2,1.7,4.9,1c1.7-0.7,2.8-2.3,2.8-4.2
		C85.4,85,83.4,83,80.9,83L80.9,83z"/>
	<circle id="Oval" class="st1" cx="104.9" cy="153.5" r="10.5"/>
</g>
<g class="st0">
	<path id="Shape_12_" class="st1" d="M39.1,80.2c-7.5,37.6-11.6,75.9-12.2,114.2h6.7c0-4.6,0.3-13.1,0.9-24
		c1.5-28.4,4.9-56.7,10.2-84.6C42.8,84,40.8,82.1,39.1,80.2z"/>
	<path id="Shape_2_" class="st1" d="M112.5,76.9c1.1-5.5,1.6-11.2,1.6-16.8c0-21.5-9.5-42.5-20.2-46.4v60.8c2.2-0.7,4.4-1,6.7-1
		C104.9,73.5,109,74.7,112.5,76.9z"/>
	<path id="Shape_5_" class="st1" d="M84.7,80L31.9,49.5c-1,5.6,1.9,13.4,7.6,20.9c0.1,0.1,0.2,0.3,0.3,0.4
		c6.1,7.9,13.6,14.5,22.1,19.5c4.8,2.7,9.9,5,15.2,6.7C77.3,90.6,79.9,84.4,84.7,80z"/>
	<path id="Shape_6_" class="st1" d="M52.8,53.8c1-3.4,2.1-6.7,3.4-9.8c0-0.1,0-0.3,0-0.4c2-5.7,4.3-11.3,6.9-16.8
		c1.4-3,2.9-5.9,4.5-8.7c0.6-1,0.6-2.3,0-3.4c-0.6-1-1.6-1.7-2.8-1.6c-1.2,0-2.3,0.6-2.9,1.6c-1.8,3.1-3.4,6.4-5.1,9.7v0.3
		c-1,2.1-2,4.2-2.9,6.4c-2.5,6-4.9,12.5-7,19.3L52.8,53.8z"/>
	<path id="Shape_7_" class="st1" d="M51.3,24.5c0.5-1.2,1-2.4,1.6-3.5c-1.1-3.7-6.9-17.7-30.1-16.6C27.3,16.3,38.6,24.3,51.3,24.5z"
		/>
	<path id="Shape_1_" class="st1" d="M61.8,37.8c-0.3,1.1-0.6,2.3-0.9,3.3c1.5,3.1,8.6,14.6,28.9,10.3C84.2,41.5,73.1,36.1,61.8,37.8
		z"/>
	<path id="Shape_8_" class="st1" d="M123.6,102.5c-1.1,4.4-3.4,8.5-6.7,11.6l9.6,5.5l6.7-11.6L123.6,102.5z"/>
	<path id="Shape_9_" class="st1" d="M112.3,84.9c-5.3-5-13.2-6.1-19.7-2.6l-0.3,0.2C87.2,85.5,84,91,84,97c0,1.3,0.2,2.6,0.5,3.9
		c1.1,4.5,4,8.3,7.9,10.6c5.2,3,11.6,3,16.8,0c4.6-2.6,7.7-7.3,8.4-12.5c0.7-5.3-1.2-10.5-5-14.2L112.3,84.9z M100.8,107.1
		c-5.6,0-10.1-4.5-10.1-10.1c0-5.6,4.5-10.1,10.1-10.1c5.6,0,10.1,4.5,10.1,10.1C110.8,102.6,106.3,107.1,100.8,107.1z"/>
	<path id="Shape_10_" class="st1" d="M187.3,135.3l-43.7-25.2c-0.5-0.3-1.1-0.4-1.7-0.4c-0.6,0-1.1,0.2-1.6,0.4
		c-0.5,0.3-0.9,0.7-1.2,1.2l-6.7,11.6c-0.4,0.8-0.6,1.7-0.3,2.6c0.2,0.9,0.8,1.6,1.6,2l43.7,25.2c1.6,0.9,3.6,0.4,4.6-1.2l6.7-11.6
		c0.4-0.8,0.5-1.7,0.3-2.6S188,135.8,187.3,135.3L187.3,135.3z"/>
	<path id="Rectangle-path" class="st1" d="M94,137.3h13.4c1.9,0,3.4,1.5,3.4,3.4v50.4c0,1.9-1.5,3.4-3.4,3.4H94
		c-1.9,0-3.4-1.5-3.4-3.4v-50.4C90.7,138.8,92.2,137.3,94,137.3z"/>
	<circle id="Oval_1_" class="st1" cx="102.4" cy="96.3" r="15"/>
	<path id="Shape_11_" class="st1" d="M107.5,119.5c-4.4,1.3-9.1,1.3-13.4,0v11.1h13.4V119.5z"/>
</g>
<g class="st0">
	<path class="st1" d="M94.3,139.4h12.1v12.1H94.3V139.4z"/>
	<path class="st1" d="M94.3,96.7h12.1v12.1H94.3V96.7z"/>
	<path class="st1" d="M49,139.4h12.1v12.1H49V139.4z"/>
	<path class="st1" d="M139.5,96.7h12.1v12.1h-12.1V96.7z"/>
	<path class="st1" d="M70.8,18.1c0-2.8-2.2-5.1-5-5.1c-2.8,0-5,2.3-5,5.1v10.6h10V18.1z"/>
	<path class="st1" d="M93.9,18.1c0-2.8-2.2-5.1-5-5.1c-2.8,0-5,2.3-5,5.1v10.6h10V18.1z"/>
	<path class="st1" d="M117,18.1c0-2.8-2.2-5.1-5-5.1c-2.8,0-5,2.3-5,5.1v10.6h10V18.1z"/>
	<path class="st1" d="M140.1,18.1c0-2.8-2.2-5.1-5-5.1c-2.8,0-5,2.3-5,5.1v10.6h10V18.1z"/>
	<path class="st1" d="M163.3,18.1c0-2.8-2.2-5.1-5-5.1s-5,2.3-5,5.1v10.6h10V18.1z"/>
	<g class="st4">
		<path class="st3" d="M49,96.7h12.1v12.1H49V96.7z"/>
		<path class="st3" d="M186,33.8c0-2.8-2.2-5.1-5-5.1h-17.7v15.7c0,2.8-2.2,5.1-5,5.1s-5-2.3-5-5.1V28.7h-13.1v15.7
			c0,2.8-2.2,5.1-5,5.1c-2.8,0-5-2.3-5-5.1V28.7H117v15.7c0,2.8-2.2,5.1-5,5.1c-2.8,0-5-2.3-5-5.1V28.7H93.9v15.7
			c0,2.8-2.2,5.1-5,5.1c-2.8,0-5-2.3-5-5.1V28.7H70.8v15.7c0,2.8-2.2,5.1-5,5.1c-2.8,0-5-2.3-5-5.1V28.7H47.6v15.7
			c0,2.8-2.2,5.1-5,5.1c-2.8,0-5-2.3-5-5.1V28.7H19.5c-2.8,0-5,2.3-5,5.1v30H186V33.8z"/>
		<path class="st3" d="M47.6,18.1c0-2.8-2.2-5.1-5-5.1c-2.8,0-5,2.3-5,5.1v10.6h10V18.1z"/>
		<path class="st3" d="M14.5,74v92c0,11.6,9.3,21,20.7,21h130c11.4,0,20.7-9.4,20.7-21V74H14.5z M129.4,91.6c0-2.8,2.2-5.1,5-5.1
			h22.1c2.8,0,5,2.3,5,5.1v22.2c0,2.8-2.2,5.1-5,5.1h-22.1c-2.8,0-5-2.3-5-5.1V91.6z M71.1,156.5c0,2.8-2.2,5.1-5,5.1H44
			c-2.8,0-5-2.3-5-5.1v-22.2c0-2.8,2.2-5.1,5-5.1h22.1c2.8,0,5,2.3,5,5.1V156.5z M71.1,113.9c0,2.8-2.2,5.1-5,5.1H44
			c-2.8,0-5-2.3-5-5.1V91.6c0-2.8,2.2-5.1,5-5.1h22.1c2.8,0,5,2.3,5,5.1V113.9z M116.4,156.5c0,2.8-2.2,5.1-5,5.1H89.2
			c-2.8,0-5-2.3-5-5.1v-22.2c0-2.8,2.2-5.1,5-5.1h22.1c2.8,0,5,2.3,5,5.1V156.5z M116.4,113.9c0,2.8-2.2,5.1-5,5.1H89.2
			c-2.8,0-5-2.3-5-5.1V91.6c0-2.8,2.2-5.1,5-5.1h22.1c2.8,0,5,2.3,5,5.1V113.9z M161.2,149.2c-1.3,3.8-6.7,7-8.7,2.5
			c-1.1,1.7-1.9,3.5-2.4,5.4c0,1.9-0.2,3.8-0.5,5.6c0,0-1.4,0.8-1.7-0.7c0.7-1.2,1.5-9.5-2.9-13.7c-2,1.6-8.2,5.4-14.2-1.4
			c-4.9-5.5-5.7-16.2-0.5-23.3c4.6,7.2,6.7,6.8,11.8,8.8c4.9,2,10.6,10.3,4,15c-1.5-1.8-3.2-3.3-5.1-4.7c1.4-2.6-0.9-7.6-0.9-7.6
			c0.5,2.3,0.5,4.6-0.1,6.8c-1.6-1-3.1-2.2-4.4-3.5c0.4-1.9,0-3.8-1-5.4c0.3,1.4,0.3,2.8,0,4.3c-1.5-2.1-2.8-4.3-3.6-6.8
			c0.1,2.7,1,5.3,2.6,7.4c-1.4,0-2.8-0.4-4.2-1.1c1.4,1.3,3.2,2.1,5.1,2.2c1.4,1.4,2.9,2.7,4.5,3.8c-2.3,0.5-4.6,0.4-6.9-0.1
			c0,0,5,2.1,7.8,1c1.8,1.4,3.5,2.9,5,4.6l1-0.9c2.2,2.1,3.5,4.9,3.8,7.8c0.6-1.6,1.5-3,2.6-4.3c0,0.2,0.1,0.4,0.2,0.6
			c1.7-2.2,3.9-4,6.3-5.3c-2.5,1.1-4.7,2.7-6.5,4.8c0,0,0-0.1,0-0.1c-2.7-9.3,12.1-8,12.1-8C163.1,144.8,162,147,161.2,149.2z"/>
	</g>
</g>
<path class="st6" d="M136.2,53.8c15,3.5,20.7,12.2,27.9,24.3h-27.9V53.8z M48.6,79.1c2.9,0,5.1,1.4,5.1,4.7c0,2.8-2.3,5.1-5,5.1
	H18.1c-2.8,0-5.1,2.3-5.1,5.1c0,2.8,2.3,5.1,5.1,5.1h45.6c2.8,0,5.1,2.3,5.1,5.1c0,2.8-2.3,5.1-5.1,5.1H18.1c-2.8,0-5.1,2.3-5.1,5.1
	c0,2.8,2.3,5.1,5.1,5.1h11.1v15.2c0,2.8,2.3,5.1,5.1,5.1h10.2c1.8,8.9,9.7,15.5,19,15.5s17.2-6.6,19-15.5h51.4
	c1.8,8.9,9.7,15.5,19,15.5c9.3,0,17.2-6.6,19-15.5h8.8c2.8,0,5.1-2.3,5.1-5.1v-30.4c0-14.9-15.7-15.8-15.7-15.9h-39
	c-2.8,0-5.1-2.3-5.1-5.1V52.8H34.3c-2.8,0-5.1,2.3-5.1,5.1V69h-6.1c-2.8,0-5.1,2.3-5.1,5.1s2.3,5.1,5.1,5.1H48.6z M159.4,129
	c3.6,3.6,3.6,9.5,0,13.1c-5.8,5.8-15.8,1.7-15.8-6.6C143.6,127.4,153.6,123.2,159.4,129z M70,129c3.6,3.6,3.6,9.5,0,13.1
	c-5.8,5.8-15.8,1.7-15.8-6.6C54.2,127.4,64.2,123.2,70,129z"/>
<g class="st0">
	<g class="st4">
		<path class="st3" d="M138,125.2h-8l-2.8-2.8c9.8-11.4,15.7-26.2,15.7-42.3c0-36-29.2-65.1-65.1-65.1S12.7,44.2,12.7,80.1
			s29.2,65.1,65.1,65.1c16.2,0,31-5.9,42.3-15.7l2.8,2.8v7.9l50.1,50l14.9-14.9L138,125.2z M77.9,125.2c-24.9,0-45.1-20.2-45.1-45.1
			S53,35,77.9,35S123,55.2,123,80.1S102.8,125.2,77.9,125.2z"/>
	</g>
</g>
<g class="st0">
	<path class="st1" d="M58.3,70.1c-0.6-0.4-1.1-0.8-1.6-1.2c-0.6-0.6-0.6-1.7,0-2.3c0.6-0.6,1.6-0.6,2.2,0c0.4,0.3,0.7,0.6,1.1,0.8
		c2.7,1.9,7.9,5.4,12.1,13.8c4.2-4.8,4.9-15.8-0.4-21.1c-6.2-6.2-18.2-6.9-26.8-6.9c-0.9,0-1.6,0.7-1.6,1.6c0,8.5,0.7,20.6,6.9,26.8
		c2.9,2.6,6.7,3.9,10.5,3.8c3.1,0.1,6.1-0.7,8.8-2.2C65.7,75.2,60.8,71.9,58.3,70.1z"/>
	<path class="st1" d="M112.4,59.7c-8.5,0-20.6,0.7-26.8,6.9c-4.6,4.6-4.7,13.3-1.9,18.7c3.8-5.3,8.9-9.6,14.9-12.5
		c0.8-0.4,1.8-0.1,2.2,0.7c0.4,0.7,0.2,1.6-0.6,2c0,0-0.1,0-0.1,0l-0.3,0.1c-6.4,3-11,7.4-14.2,12.4c3,2.5,6.9,3.9,10.9,3.7
		c3.9,0.2,7.7-1.2,10.5-3.8c6.2-6.2,6.9-18.2,6.9-26.8C114,60.4,113.2,59.7,112.4,59.7z"/>
	<path class="st1" d="M83.6,85.3c-2.9,4.1-5,8.8-6.2,13.8c-1.2-7.6-3.1-13.4-5.3-17.8c-0.1,0.2-0.3,0.3-0.4,0.4
		c-0.7,0.6-1.4,1.1-2.2,1.6c3.3,6.8,5.9,17,5.9,32.6c0,0.9,0.7,1.6,1.6,1.6c0.9,0,1.6-0.7,1.6-1.6c0-8.7,1.5-19.1,7-27.7
		c0,0,0,0-0.1-0.1C84.8,87.3,84.2,86.4,83.6,85.3z"/>
</g>
<g>
	<path class="st3" d="M99.4,13c-21.9,0-39.8,17.8-39.8,39.8c0,7.5,2.1,14.8,6.1,21.2l33.6,53.7l33.6-53.7c4-6.3,6.1-13.7,6.1-21.2
		C139.2,30.8,121.3,13,99.4,13z M99.4,77.6c-13.7,0-24.8-11.1-24.8-24.8s11.1-24.8,24.8-24.8s24.8,11.1,24.8,24.8
		S113.1,77.6,99.4,77.6z"/>
	<path class="st3" d="M75.2,182.6h48.4l-3.8-30.1H79L75.2,182.6z"/>
	<path class="st3" d="M80.2,142.5h16.9L83,120.2L80.2,142.5z"/>
	<path class="st3" d="M128.5,142.5h39.1l-12.4-29.8h-30.5L128.5,142.5z"/>
	<path class="st3" d="M31.2,142.5h39l3.7-29.8H43.6L31.2,142.5z"/>
	<path class="st3" d="M101.8,142.5h16.7l-2.8-22L101.8,142.5z"/>
	<path class="st3" d="M68.9,152.5H27l-12.4,30.1h50.6L68.9,152.5z"/>
	<path class="st3" d="M171.8,152.5h-42l3.8,30.1h50.6L171.8,152.5z"/>
</g>
</svg>
