<?xml version="1.0" encoding="utf-8"?>
<!-- Generator: Adobe Illustrator 24.0.1, SVG Export Plug-In . SVG Version: 6.00 Build 0)  -->
<svg version="1.1" id="Layer_1" xmlns="http://www.w3.org/2000/svg" xmlns:xlink="http://www.w3.org/1999/xlink" x="0px" y="0px"
	 viewBox="0 0 200 200" style="enable-background:new 0 0 200 200;" xml:space="preserve">
<style type="text/css">
	.st0{display:none;}
	.st1{display:inline;fill:#7DAA00;}
	.st2{display:none;fill:#7DAA00;}
	.st3{display:inline;}
	.st4{fill:#7DAA00;}
</style>
<g id="budding-leaves" transform="translate(-3.445)" class="st0">
	<path id="Path_31" class="st1" d="M32.4,118.4c28.6,32.3,58.4,14,68.1,6.4c-7.3-8-15.3-15.4-23.9-21.9c-13.4,5.2-37.4-4.6-37.4-4.6
		c10.8,2.8,22,3,32.9,0.6c-0.9-0.7-16.9-11.5-21.7-17.8C37,81.6,26,70.8,26,70.8c6.2,3.1,13,4.8,19.9,5.2C32.7,57.7,33.3,41,33.3,41
		c4.1,11.5,10,22.3,17.3,32.1c1.3-6.7,1.2-13.6-0.3-20.3c0,0,8.6,13.4,4.7,25.7c6.8,7.3,17.5,13.6,21.4,16.4
		c0.3-0.8,4.4-13.5,0.4-32.3c0,0,10.9,23.6,4.1,35.9c8.3,6,10.6,7.5,24.5,22.1c31.5-22.2,4.4-61.8-19.2-71.1
		C61.8,40,51.7,41.9,29.5,7.7C5.1,41.6,9.1,92.1,32.4,118.4z M167,115c-12,5-22.6,12.7-31.1,22.5c-0.1-0.2-0.2-0.4-0.3-0.7
		c-13-43.9,58.4-37.8,58.4-37.8c-6.2,9.3-11.4,19.3-15.4,29.8c-6.4,18-32.3,33-41.7,11.6C145.2,130,155.4,121.4,167,115L167,115z
		 M100.5,124.9c0.1-0.1,4.9-4.2,4.9-4.2c12.2,12.7,17,23.5,18.2,37.2c3-7.4,7.2-14.3,12.4-20.3c0.3,1,0.7,2,1.1,2.9
		c-7.3,9.2-10.1,21.7-11.7,25.8c0,11.4-1.3,17.2-2.4,26.7c0,0-6.6,3.6-8.4-3.2C118.2,184,121.8,144.5,100.5,124.9z"/>
</g>
<path id="audit" class="st2" d="M148.9,19.9H121C116.9,8.4,104.3,2.3,92.7,6.4c-6.3,2.2-11.3,7.2-13.5,13.5H51
	c-12.2,0-22.1,9.9-22.2,22.2V172c0,12.2,9.9,22.1,22.2,22.2h97.9c12.2,0,22.1-9.9,22.1-22.2V42.1C171,29.8,161.1,19.9,148.9,19.9
	L148.9,19.9z M92.7,34.7v-7.4c-0.1-4.1,3.2-7.4,7.2-7.5c4.1-0.1,7.4,3.2,7.5,7.2c0,0.1,0,0.2,0,0.3v7.4h14.8v14.4H78V34.7H92.7z
	 M156.2,172c0,4.1-3.3,7.4-7.4,7.4H51c-4.1,0-7.4-3.3-7.4-7.4V42.1c0-4.1,3.3-7.4,7.4-7.4h12.2v29.2H137V34.7h11.8
	c4.1,0,7.4,3.3,7.4,7.4V172z M128.3,90.1l10.9,9.9l-47.3,52l-31.2-30.2l10.3-10.6l20.3,19.6L128.3,90.1z"/>
<g id="budding-leaves_1_" transform="translate(9.556 11.149)" class="st0">
	<path id="Path_31_1_" class="st1" d="M50.4,82.2c12.3,13.9,25.2,6,29.3,2.8c-3.1-3.5-6.6-6.6-10.3-9.4c-5.8,2.2-16.1-2-16.1-2
		c4.6,1.2,9.5,1.3,14.2,0.3c-3.4-2.2-6.5-4.8-9.4-7.7c-3.9-0.2-7.6-1.8-10.5-4.5c2.7,1.3,5.6,2.1,8.6,2.2c-3.3-4.3-5.2-9.6-5.4-15.1
		c1.8,5,4.3,9.6,7.5,13.8c0.6-2.9,0.5-5.9-0.1-8.7c2.1,3.3,2.8,7.3,2,11.1c2.8,2.7,5.9,5,9.2,7.1c1.2-4.5,1.3-9.3,0.2-13.9
		c0,0,4.7,10.2,1.8,15.5c3.9,2.7,7.5,5.9,10.6,9.5c13.6-9.6,1.9-26.6-8.3-30.6c-10.5-4.1-14.8-3.3-24.4-18
		C38.6,49.1,40.3,70.9,50.4,82.2z M108.4,80.8c-5.2,2.2-9.8,5.5-13.4,9.7c0-0.1-0.1-0.2-0.1-0.3C89.3,71.2,120,73.9,120,73.9
		c-2.7,4-4.9,8.3-6.6,12.8c-2.7,7.8-13.9,14.2-18,5C99,87.2,103.4,83.5,108.4,80.8z M79.7,85c0,0,2.1-1.8,2.1-1.8
		c4.5,4.2,7.3,9.9,7.8,16c1.3-3.2,3.1-6.2,5.3-8.8c0.1,0.4,0.3,0.8,0.5,1.3c-2.3,3.4-4,7.2-5,11.1c-0.1,3.9-0.4,7.7-1,11.5
		c0,0-2.8,1.6-3.6-1.4C87.3,110.5,88.9,93.5,79.7,85z"/>
</g>
<path id="Path_32" class="st2" d="M189.3,171.7l-47.2-47.2c22.7-32.3,14.9-76.8-17.4-99.4S47.9,10.2,25.3,42.4s-14.9,76.8,17.4,99.4
	c12.1,8.5,26.5,13,41.3,13c14.8-0.1,29.3-4.8,41.3-13.5l47.2,47.2c4.8,4.2,12,4.2,16.9,0l0,0C193.3,184.2,192.5,176.8,189.3,171.7z
	 M83.9,138c-30.3,0-54.8-24.5-54.8-54.8c0-30.3,24.5-54.8,54.8-54.8c30.3,0,54.8,24.5,54.8,54.8c0.1,30.2-24.4,54.7-54.6,54.8
	C84.1,138,84,138,83.9,138z"/>
<g id="list-with-dots_1_" transform="translate(0 -54.817)" class="st0">
	<g id="Group_167" transform="translate(0 54.817)" class="st3">
		<path id="Path_33" class="st4" d="M31.4,81.1c-5-0.1-9.8,1.9-13.3,5.5c-7.3,7.4-7.3,19.2,0,26.6c3.5,3.6,8.3,5.6,13.3,5.5
			c5,0.1,9.8-1.9,13.3-5.5c7.3-7.4,7.3-19.2,0-26.6C41.2,83,36.4,81,31.4,81.1z"/>
		<path id="Path_34" class="st4" d="M31.4,31c-5-0.1-9.8,1.9-13.3,5.5c-7.3,7.4-7.3,19.2,0,26.6c3.5,3.6,8.3,5.6,13.3,5.5
			c5,0.1,9.8-1.9,13.3-5.5c7.3-7.4,7.3-19.2,0-26.6C41.2,32.9,36.4,30.9,31.4,31z"/>
		<path id="Path_35" class="st4" d="M31.4,131.1c-5-0.1-9.8,1.9-13.3,5.5c-7.3,7.4-7.3,19.2,0,26.6c3.5,3.6,8.3,5.6,13.3,5.5
			c5,0.1,9.8-1.9,13.3-5.5c7.3-7.4,7.3-19.2,0-26.6C41.2,133,36.4,131,31.4,131.1z"/>
		<path id="Path_36" class="st4" d="M186.9,38.2c-0.6-0.6-1.4-0.9-2.2-0.9H65.8c-1.7,0-3.1,1.4-3.1,3.1v18.8c0,1.7,1.4,3.1,3.1,3.1
			h118.9c1.7,0,3.1-1.4,3.1-3.1V40.4C187.8,39.6,187.5,38.8,186.9,38.2z"/>
		<path id="Path_37" class="st4" d="M184.7,87.3H65.8c-1.7,0-3.1,1.4-3.1,3.1v18.8c0,1.7,1.4,3.1,3.1,3.1h118.9
			c1.7,0,3.1-1.4,3.1-3.1V90.5C187.8,88.7,186.4,87.4,184.7,87.3L184.7,87.3z"/>
		<path id="Path_38" class="st4" d="M184.7,137.4H65.8c-1.7,0-3.1,1.4-3.1,3.1v18.8c0,1.7,1.4,3.1,3.1,3.1h118.9
			c1.7,0,3.1-1.4,3.1-3.1v-18.8C187.8,138.8,186.4,137.4,184.7,137.4L184.7,137.4z"/>
	</g>
</g>
<g id="plant" transform="translate(0 -0.208)" class="st0">
	<g id="Group_169" transform="translate(11.251 0.208)" class="st3">
		<g id="Group_168">
			<path id="Path_39" class="st4" d="M176.5,21.3c-0.6-1.3-1.9-2.2-3.3-2.2c-26.9,0-51.5,8.5-65.7,22.7C99.2,50,96,62.1,99,73.4
				c0.5,1.9,2.5,3.1,4.4,2.5c0.9-0.2,1.7-0.8,2.2-1.6c6.8-11.2,14.9-21.4,24.1-30.6c1.4-1.4,3.7-1.4,5.1,0c1.4,1.4,1.4,3.7,0,5.1
				c-2.8,2.8-5.3,5.5-7.6,8.2c-0.2,0.3-0.4,0.5-0.7,0.8c-10.3,11.7-18.7,25-24.8,39.4C96.9,82.6,88.2,57.6,80.2,47
				c5-7.2,4.1-17-2.1-23.3c-7.5-7.5-20-11.9-34.1-11.9c-2,0-3.6,1.6-3.6,3.6c0,1,0.4,1.9,1.1,2.6c3.3,3.3,4.3,9.7,5.3,15.9
				c1,6.3,2,12.2,5.5,15.7c6.1,6.1,15.5,7.1,22.8,2.5c8.3,11.7,19.2,44.9,22.9,57.7c0.4,1.5,1.9,2.6,3.4,2.6h0.1
				c1.6,0,3-1.2,3.4-2.7c1.8-6.1,4.2-12.1,7.1-17.7c13,9.3,30.8,7.8,42-3.5c6.1-6.1,8-17.5,10-29.5c2.1-12.9,4.3-26.3,11.7-33.7
				C176.7,24.2,177,22.6,176.5,21.3z"/>
		</g>
	</g>
	<g id="Group_171" transform="translate(0 25.005)" class="st3">
		<g id="Group_170">
			<path id="Path_40" class="st4" d="M57.7,74.3c-6.2-5.8-30.7-7.7-38.1-8.2c-1,0-1.9,0.3-2.7,1c-0.7,0.7-1.1,1.6-1.1,2.6v71.8
				c0,2,1.6,3.6,3.6,3.6h21.5c1.6,0,2.9-1,3.4-2.5c0.5-1.6,12.9-46.7,14.5-65.4C58.9,76.1,58.5,75,57.7,74.3z"/>
		</g>
	</g>
	<g id="Group_173" transform="translate(11.697 31.349)" class="st3">
		<g id="Group_172">
			<path id="Path_41" class="st4" d="M154.8,106.5l-25.1,10.7c-7,0.3-21.4-0.1-25.1-0.1c-3.6,0.1-22.3-5.9-19.4-7.1
				c1.7-0.3,3.3-0.3,5-0.1c16.4,1.4,43.1,4.7,43.1-7.2s-28.9-14.4-35.9-14.4s-18.7-6.3-28.7-7.2c-4-0.4-9.5-0.9-15-1.3
				c-3,16.5-7.1,32.8-12.3,48.7l38,17.2c14.2,5.4,23.9,12.3,53.8,0c0,0,43.1-18.3,43.1-28.7C176.3,108.6,166.4,102.5,154.8,106.5z"
				/>
		</g>
	</g>
</g>
<path id="Path_42" class="st2" d="M165,73.9v91.6c0,11.9-9.7,21.6-21.6,21.6H35.2c-11.9,0-21.6-9.7-21.6-21.6V57.3
	c0-11.9,9.7-21.6,21.6-21.6h91.6l-21.6,21.6H35.2v108.2h108.2V95.5L165,73.9z M148.4,29.3l-7.6,7.6l22.9,22.9l7.6-7.6L148.4,29.3z
	 M163.7,14l-7.6,7.6L179,44.6l7.6-7.7L163.7,14z M64.3,113.4l22.9,22.9l68.8-68.8l-22.9-22.9L64.3,113.4z M56.9,143.8h21.6
	l-21.6-21.6L56.9,143.8z"/>
<g id="growth" transform="translate(0.002 -0.5)" class="st0">
	<path id="Path_43" class="st1" d="M176.5,168.1v-96h-41.6v96h-15V92.9H78.4v75.2h-15v-54.5H21.8v54.5H10.6v10.4h177.2v-10.4H176.5z
		"/>
	<path id="Path_44" class="st1" d="M35.9,94.1l117.4-51.8l-4.7,12.8l9.8,3.6l10.8-29.5l-29.3-10.7l-3.5,9.8l12.7,4.6L31.7,84.6
		L35.9,94.1z"/>
</g>
<g id="printer" transform="translate(0 -6.5)" class="st0">
	<g id="Group_174" transform="translate(0 6.5)" class="st3">
		<path id="Path_45" class="st4" d="M23.6,77.9h151.8c1.8,0.3,3.5-1,3.7-2.8c0.2-1.5-0.6-2.9-2-3.5c-2.5-0.9-30.7-11.5-35.6-11.5h-8
			V33.2H65.6V60h-8.1c-4.9,0-33.1,10.7-35.6,11.5c-1.7,0.7-2.5,2.6-1.8,4.3C20.7,77.3,22.1,78.1,23.6,77.9z M177.2,87.7H21.8
			c-4.9,0-9.8,5.8-9.8,10.7v31.3c0,4.9,4.9,10.7,9.8,10.7h17.7L31.6,185h135.7l-7.9-44.6h17.7c4.9,0,9.8-5.8,9.8-10.7V98.4
			C187,93.5,182.1,87.7,177.2,87.7z M49.5,167.2l12.5-58h75l12.5,58H49.5z"/>
	</g>
</g>
<path class="st2" d="M58.2,109.8c7.2,2.9,12,7.4,14.6,14.2c3.7,9.4,1.4,21.9-5.3,28.5c-4.9,4.8-11.1,6.7-17.7,6.9
	c-10.3,0.3-20.7,0.1-31,0.2c-1.1,0-1.5-0.3-1.4-1.4c0.1-0.5,0-1,0-1.5c0-30,0-59.9-0.1-89.9c0-2.2,0.6-2.7,2.7-2.6
	c7.8,0.1,15.6,0,23.4,0.1c6.3,0,12.4,0.9,18,4.2c3.3,2,5.9,4.7,7.6,8.2c4.5,9.1,2.5,22.4-4.2,28.9C63.1,107.3,61,108.5,58.2,109.8z
	 M24.4,133.2c0,6.2,0,12.5,0,18.7c0,1.1,0,1.9,1.5,1.8c8.2-0.2,16.4,0.4,24.6-0.3c5.7-0.5,10.8-2.6,13.9-7.8
	c4.4-7.4,4.6-15.2,0.7-22.8c-3.7-7.2-10.3-9.8-18-9.9c-6.9-0.1-13.8,0-20.7-0.1c-1.6,0-2.1,0.4-2,2C24.5,121,24.4,127.1,24.4,133.2z
	 M24.4,88.2c0,5.4,0,10.8,0,16.2c0,0.9-0.3,2,1.4,2c8-0.1,16.1,0.1,24.1-0.2c6.3-0.3,11.2-3.5,13.9-9.5c5.4-12.2-0.8-23.8-13.8-26.1
	c-1.4-0.2-2.8-0.4-4.2-0.4c-6.5-0.1-13,0-19.4-0.1c-1.5,0-2,0.3-1.9,1.9C24.5,77.4,24.4,82.8,24.4,88.2z"/>
<path class="st2" d="M117.6,149c-1.8,2-3.2,3.8-4.8,5.4c-5.8,5.6-14.8,7.1-22.2,3.8c-11-5-13.5-19.7-4.9-28.9
	c4.6-4.9,10.5-7.5,16.8-9.4c4.5-1.3,9-2.6,13.5-3.8c1.2-0.3,1.8-0.9,1.7-2.2c-0.1-1.6,0-3.1,0-4.7c0.1-5.5-2-9.9-7.1-12.2
	c-5.3-2.4-10.4-1.4-14.9,2.4c-1.9,1.6-3.4,3.6-4.5,5.8c-0.6,1.3-1.2,1.7-2.6,1c-5.1-2.5-5.5-0.8-1.8-6.2c4.6-6.7,11-10.4,19.4-10.1
	c10.6,0.4,18,7.9,18,18.5c0,12.3-0.1,24.6-0.2,36.9c0,4.1,0.4,8,1.6,11.9c0.6,2-0.1,2.3-1.8,2.3c-4.6,0.1-4.6,0.1-5.4-4.4
	C118.1,153.2,117.9,151.2,117.6,149z M117.5,131C117.5,131,117.6,131,117.5,131c0-2.7,0-5.4,0.1-8.1c0-1.2-0.2-1.6-1.5-1.2
	c-3,0.8-6.1,1.4-9,2.4c-5.4,1.7-10.8,3.5-15.1,7.4c-4.6,4-6.1,11.1-3.6,15.9c2.5,4.9,8.6,7.5,14.5,6.2c4.6-1,7.8-4,10.7-7.5
	c2.5-3.1,4.8-6.2,4-10.6C117.3,134,117.5,132.5,117.5,131z"/>
<path class="st2" d="M136,111.9c0-15.1,0-30.2,0-45.3c0-2,0.5-2.5,2.4-2.4c4.2,0.1,4.2,0,4.2,4.2c0,29.5,0,59.1,0.1,88.6
	c0,2.1-0.5,2.6-2.5,2.5c-4.1-0.2-4.1,0-4.1-4.1C136,140.9,136,126.4,136,111.9z"/>
<path class="st2" d="M172.3,112.1c0,15,0,30,0,45.1c0,1.9-0.5,2.5-2.4,2.4c-4.2-0.2-4.2,0-4.2-4.2c0-29.5,0-59.1,0-88.6
	c0-2.1,0.5-2.6,2.5-2.5c4.1,0.2,4.1,0,4.1,4.1C172.3,82.9,172.3,97.5,172.3,112.1z"/>
<path class="st2" d="M126.5,47.3c0-7.1,5.6-12.9,12.7-12.9c7.2,0,13,5.7,13,12.9c0,7.1-5.9,13-13.1,12.9
	C132.1,60.2,126.5,54.5,126.5,47.3z"/>
<path class="st2" d="M181.9,47.3c0,7.2-5.8,13-13,12.9c-7.1-0.1-12.7-5.8-12.7-12.9c-0.1-7.1,5.8-12.9,13-12.9
	C176.3,34.5,182,40.3,181.9,47.3z"/>
<path class="st2" d="M144.4,181.7l-25-27.3l10.6-10.6l14.5,14.5l32.7-32.7l10.6,12.8 M106.2,181.7h-71c-10,0-18.2-8.1-18.2-18.2
	V36.2c0-10.1,8.1-18.2,18.2-18.2h127.4c10,0,18.2,8.1,18.2,18.2v71c-8-4.6-17.4-7.3-27.3-7.3l-9.1,0.7v-9.8h-91V109h70
	c-15.3,10.1-24.5,27.2-24.5,45.5C98.9,164.4,101.6,173.7,106.2,181.7 M98.9,127.2H53.4v18.2h45.5 M144.4,54.4h-91v18.2h91"/>
<path class="st4" d="M166,68.3c0,1.4,0,2.3,0,3.3c0,35,0,70,0,105c0,8.7-4.2,12.9-13,12.9c-35.5,0-71,0-106.6,0
	c-8.7,0-12.9-4.2-12.9-13c0-50.3,0-100.6,0-150.9c0-8.7,4.2-12.9,13-12.9c20.3,0,40.7,0,61-0.1c2.4,0,3,0.7,3,3
	c-0.1,13.2-0.1,26.4,0,39.6c0,8.2,4.7,12.9,13,12.9c13,0,26.1,0,39.1,0C163.6,68.3,164.6,68.3,166,68.3z M95.3,54.9
	c-0.8-1.4-1.5-3-2.6-4.2c-1.3-1.2-2.9-2.5-4.5-2.8c-4.2-0.9-5.1-3.4-4.8-7.3c0.3-3.6-2.4-6.1-5.8-6.1c-3.4,0-6,2.5-5.7,6.2
	c0.3,3.9-0.9,5.7-4.8,7.4c-11.9,5.1-15.5,18.4-8.1,28.1c3.4,4.5,8.1,7.1,13.6,8.2c3.2,0.6,6.5,0.6,9.6,1.5c3.9,1,6.1,4,6.1,7.1
	c0,3.1-2.2,5.8-6,7.2c-4.5,1.6-8.7,0.9-12.7-1.8c-2.9-2-6.3-1.4-8.1,1.3c-1.8,2.6-1.3,5.9,1.4,8c1.3,1,2.6,2.2,4.1,2.5
	c4.3,0.9,5.3,3.4,4.9,7.5c-0.3,3.5,2.3,6,5.6,6c3.4,0.1,6.2-2.4,5.8-6c-0.4-4.1,1-5.9,4.9-7.6c7.1-3,11.5-8.6,11.7-16.7
	c0.2-8.2-4.2-13.9-11.2-17.3c-3.2-1.6-7-1.9-10.6-2.7c-2.1-0.5-4.4-0.6-6.4-1.5c-2.8-1.2-4.8-3.3-4.8-6.7c0-3.3,2.1-5.1,4.7-6.5
	c0.9-0.5,1.9-0.8,2.9-1c4-1,7.6-0.1,10.9,2.2c2,1.4,4.1,1.7,6.3,0.5C93.7,59.1,94.8,57.5,95.3,54.9z M99.5,145.6
	c12.7,0,25.4,0,38.1,0c1.4,0,2.9-0.3,4.1-1c2.3-1.3,3.1-4,2.3-6.5c-0.8-2.6-3.1-4.1-6.5-4.1c-25.2,0-50.4,0-75.6,0
	c-4.1,0-6.7,2.3-6.7,5.9c0,3.6,2.5,5.8,6.7,5.8C74.5,145.6,87,145.6,99.5,145.6z M99.5,167.8c12.8,0,25.6,0,38.3,0
	c4,0,6.4-2.2,6.4-5.7c0-3.4-2.5-5.8-6.4-5.9c-0.4,0-0.9,0-1.3,0c-24.5,0-49.1,0-73.6,0c-0.8,0-1.6,0-2.3,0c-3.3,0.4-5.5,2.9-5.4,6.1
	c0.1,3.2,2.5,5.5,5.9,5.5C73.9,167.8,86.7,167.8,99.5,167.8z M127.3,123.5c3.7,0,7.4,0,11.1,0c3.4,0,5.8-2.3,5.9-5.5
	c0.1-3.2-2.1-6-5.4-6.1c-7.6-0.2-15.3-0.2-22.9,0c-3.2,0.1-5.7,3.1-5.5,6c0.2,3.1,2.7,5.5,6,5.5
	C120.1,123.5,123.7,123.5,127.3,123.5z M127.3,101.3c3.7,0,7.4,0,11.1,0c3.4,0,5.8-2.3,5.9-5.5c0.1-3.2-2.1-6-5.4-6.1
	c-7.6-0.2-15.3-0.2-22.9,0c-3.2,0.1-5.7,3.1-5.5,6c0.2,3.1,2.7,5.5,6,5.5C120.1,101.4,123.7,101.3,127.3,101.3z"/>
<path class="st4" d="M164.6,56.6c-0.2,0-0.8,0-1.3,0c-12.8,0-25.6,0-38.4,0c-2.1,0-2.8-0.5-2.8-2.7c0.1-12.9,0-25.8,0-38.6
	c0-0.5,0-1,0-1.2C136.2,28.3,150.4,42.5,164.6,56.6z"/>
<path class="st2" d="M118.7,9H31.1c-11.6,0-21,9.4-21,21v118.1c0,11.6,9.4,21,21,21h62c-6.7-9.1-10.6-20.3-10.6-32.4
	c0-30.5,24.8-55.2,55.2-55.2c0.6,0,1.3,0,1.9,0.1V30C139.7,18.4,130.3,9,118.7,9z M40.6,39.5h30.5c4.2,0,7.6,3.4,7.6,7.6
	s-3.4,7.6-7.6,7.6H40.6c-4.2,0-7.6-3.4-7.6-7.6S36.4,39.5,40.6,39.5z M78.7,115.7H40.6c-4.2,0-7.6-3.4-7.6-7.6s3.4-7.6,7.6-7.6h38.1
	c4.2,0,7.6,3.4,7.6,7.6S82.9,115.7,78.7,115.7z M109.2,85.2H40.6c-4.2,0-7.6-3.4-7.6-7.6s3.4-7.6,7.6-7.6h68.6
	c4.2,0,7.6,3.4,7.6,7.6S113.4,85.2,109.2,85.2z"/>
<path class="st2" d="M137.8,176.6c-22.1,0-40-17.9-40-40s17.9-40,40-40s40,17.9,40,40S159.8,176.6,137.8,176.6z M137.8,111.9
	c-13.7,0-24.8,11.1-24.8,24.8s11.1,24.8,24.8,24.8s24.8-11.1,24.8-24.8S151.4,111.9,137.8,111.9z"/>
<path class="st2" d="M185.4,191.9c-2,0-3.9-0.7-5.4-2.2l-24.8-24.8c-3-3-3-7.8,0-10.8c3-3,7.8-3,10.8,0l24.8,24.8c3,3,3,7.8,0,10.8
	C189.3,191.1,187.3,191.9,185.4,191.9L185.4,191.9z"/>
<g class="st0">
	<path class="st1" d="M143.3,108.5c-22.7,0-41.3,18.5-41.3,41.3s18.5,41.3,41.3,41.3s41.3-18.5,41.3-41.3S166.1,108.5,143.3,108.5z
		 M168.8,156h-19.3v19.3h-12.4V156h-19.3v-12.4h19.3v-19.3h12.4v19.3h19.3V156z"/>
	<polygon class="st1" points="108,14.7 108,43.7 137.1,43.7 	"/>
	<path class="st1" d="M39.6,152.6v-12.4h50.9c1.1-5.9,3.1-11.5,6-16.6H39.6v-12.4H106c9.7-9.3,22.8-15.1,37.3-15.1V56.2H95.6V8.5
		H18.8v172.2h80.6c-5.6-8-9.2-17.6-9.7-28H39.6z M39.6,82.1h83v12.4h-83V82.1z"/>
</g>
</svg>
